<svg width="32" height="32" viewBox="0 0 32 32" fill="none" xmlns="http://www.w3.org/2000/svg">
<path d="M5.33334 25.3334V13.3334C5.33334 12.9111 5.42779 12.5111 5.61668 12.1334C5.80557 11.7556 6.06668 11.4445 6.40001 11.2L14.4 5.20002C14.8667 4.84446 15.4 4.66669 16 4.66669C16.6 4.66669 17.1333 4.84446 17.6 5.20002L25.6 11.2C25.9333 11.4445 26.1945 11.7556 26.3833 12.1334C26.5722 12.5111 26.6667 12.9111 26.6667 13.3334V25.3334C26.6667 26.0667 26.4056 26.6945 25.8833 27.2167C25.3611 27.7389 24.7333 28 24 28H20C19.6222 28 19.3056 27.8722 19.05 27.6167C18.7945 27.3611 18.6667 27.0445 18.6667 26.6667V20C18.6667 19.6222 18.5389 19.3056 18.2833 19.05C18.0278 18.7945 17.7111 18.6667 17.3333 18.6667H14.6667C14.2889 18.6667 13.9722 18.7945 13.7167 19.05C13.4611 19.3056 13.3333 19.6222 13.3333 20V26.6667C13.3333 27.0445 13.2056 27.3611 12.95 27.6167C12.6945 27.8722 12.3778 28 12 28H8.00001C7.26668 28 6.6389 27.7389 6.11668 27.2167C5.59445 26.6945 5.33334 26.0667 5.33334 25.3334Z" fill="#7364FE"/>
</svg>
