<svg width="32" height="32" viewBox="0 0 32 32" fill="none" xmlns="http://www.w3.org/2000/svg">
<path d="M18.6667 20.0001C19.0445 20.0001 19.3723 19.8612 19.6501 19.5834C19.9279 19.3056 20.0667 18.9779 20.0667 18.6001C20.0667 18.2223 19.9279 17.8945 19.6501 17.6167C19.3723 17.339 19.0445 17.2001 18.6667 17.2001C18.289 17.2001 17.9612 17.339 17.6834 17.6167C17.4056 17.8945 17.2667 18.2223 17.2667 18.6001C17.2667 18.9779 17.4056 19.3056 17.6834 19.5834C17.9612 19.8612 18.289 20.0001 18.6667 20.0001ZM18.6667 15.7334C18.9112 15.7334 19.139 15.6445 19.3501 15.4667C19.5612 15.289 19.689 15.0556 19.7334 14.7667C19.7779 14.5001 19.8723 14.2556 20.0167 14.0334C20.1612 13.8112 20.4223 13.5112 20.8001 13.1334C21.4667 12.4667 21.9112 11.9279 22.1334 11.5167C22.3556 11.1056 22.4667 10.6223 22.4667 10.0667C22.4667 9.06675 22.1167 8.25008 21.4167 7.61675C20.7167 6.98341 19.8001 6.66675 18.6667 6.66675C17.9334 6.66675 17.2667 6.83341 16.6667 7.16675C16.0667 7.50008 15.589 7.97786 15.2334 8.60008C15.1001 8.8223 15.089 9.05564 15.2001 9.30008C15.3112 9.54453 15.5001 9.7223 15.7667 9.83341C16.0112 9.94453 16.2501 9.95564 16.4834 9.86675C16.7167 9.77786 16.9112 9.6223 17.0667 9.40008C17.2667 9.11119 17.5001 8.89453 17.7667 8.75008C18.0334 8.60564 18.3334 8.53341 18.6667 8.53341C19.2001 8.53341 19.6334 8.68341 19.9667 8.98341C20.3001 9.28341 20.4667 9.68897 20.4667 10.2001C20.4667 10.5112 20.3779 10.8056 20.2001 11.0834C20.0223 11.3612 19.7112 11.7112 19.2667 12.1334C18.6223 12.689 18.2112 13.1167 18.0334 13.4167C17.8556 13.7167 17.7445 14.1556 17.7001 14.7334C17.6779 15.0001 17.7612 15.2334 17.9501 15.4334C18.139 15.6334 18.3779 15.7334 18.6667 15.7334ZM10.6667 24.0001C9.93341 24.0001 9.30564 23.739 8.78341 23.2167C8.26119 22.6945 8.00008 22.0667 8.00008 21.3334V5.33341C8.00008 4.60008 8.26119 3.9723 8.78341 3.45008C9.30564 2.92786 9.93341 2.66675 10.6667 2.66675H26.6667C27.4001 2.66675 28.0279 2.92786 28.5501 3.45008C29.0723 3.9723 29.3334 4.60008 29.3334 5.33341V21.3334C29.3334 22.0667 29.0723 22.6945 28.5501 23.2167C28.0279 23.739 27.4001 24.0001 26.6667 24.0001H10.6667ZM5.33341 29.3334C4.60008 29.3334 3.9723 29.0723 3.45008 28.5501C2.92786 28.0279 2.66675 27.4001 2.66675 26.6667V9.33341C2.66675 8.95564 2.79453 8.63897 3.05008 8.38341C3.30564 8.12786 3.6223 8.00008 4.00008 8.00008C4.37786 8.00008 4.69453 8.12786 4.95008 8.38341C5.20564 8.63897 5.33341 8.95564 5.33341 9.33341V26.6667H22.6667C23.0445 26.6667 23.3612 26.7945 23.6167 27.0501C23.8723 27.3056 24.0001 27.6223 24.0001 28.0001C24.0001 28.3779 23.8723 28.6945 23.6167 28.9501C23.3612 29.2056 23.0445 29.3334 22.6667 29.3334H5.33341Z" fill="#7364FE"/>
</svg>
