<svg width="26" height="40" viewBox="0 0 26 40" fill="none" xmlns="http://www.w3.org/2000/svg">
<path d="M3.95833 20.2917L10.4583 26.7917C10.7639 27.0972 10.9167 27.4861 10.9167 27.9583C10.9167 28.4306 10.7639 28.8194 10.4583 29.125C10.1528 29.4306 9.76389 29.5833 9.29167 29.5833C8.81944 29.5833 8.43056 29.4306 8.125 29.125L0.458333 21.4583C0.291667 21.2917 0.173611 21.1111 0.104167 20.9167C0.0347222 20.7222 0 20.5139 0 20.2917C0 20.0694 0.0347222 19.8611 0.104167 19.6667C0.173611 19.4722 0.291667 19.2917 0.458333 19.125L8.125 11.4583C8.43056 11.1528 8.81944 11 9.29167 11C9.76389 11 10.1528 11.1528 10.4583 11.4583C10.7639 11.7639 10.9167 12.1528 10.9167 12.625C10.9167 13.0972 10.7639 13.4861 10.4583 13.7917L3.95833 20.2917Z" fill="#A2A2A2"/>
</svg>
