<svg width="32" height="32" viewBox="0 0 32 32" fill="none" xmlns="http://www.w3.org/2000/svg">
<path d="M5.33337 25.3333V13.3333C5.33337 12.9111 5.42782 12.5111 5.61671 12.1333C5.8056 11.7555 6.06671 11.4444 6.40004 11.2L14.4 5.19996C14.8667 4.8444 15.4 4.66663 16 4.66663C16.6 4.66663 17.1334 4.8444 17.6 5.19996L25.6 11.2C25.9334 11.4444 26.1945 11.7555 26.3834 12.1333C26.5723 12.5111 26.6667 12.9111 26.6667 13.3333V25.3333C26.6667 26.0666 26.4056 26.6944 25.8834 27.2166C25.3612 27.7388 24.7334 28 24 28H20C19.6223 28 19.3056 27.8722 19.05 27.6166C18.7945 27.3611 18.6667 27.0444 18.6667 26.6666V20C18.6667 19.6222 18.5389 19.3055 18.2834 19.05C18.0278 18.7944 17.7112 18.6666 17.3334 18.6666H14.6667C14.2889 18.6666 13.9723 18.7944 13.7167 19.05C13.4612 19.3055 13.3334 19.6222 13.3334 20V26.6666C13.3334 27.0444 13.2056 27.3611 12.95 27.6166C12.6945 27.8722 12.3778 28 12 28H8.00004C7.26671 28 6.63893 27.7388 6.11671 27.2166C5.59449 26.6944 5.33337 26.0666 5.33337 25.3333Z" fill="#ABABAB"/>
</svg>
