<svg width="32" height="32" viewBox="0 0 32 32" fill="none" xmlns="http://www.w3.org/2000/svg">
<path d="M7.80008 22.8C8.93341 21.9334 10.2001 21.25 11.6001 20.75C13.0001 20.25 14.4667 20 16.0001 20C17.5334 20 19.0001 20.25 20.4001 20.75C21.8001 21.25 23.0667 21.9334 24.2001 22.8C24.9779 21.8889 25.5834 20.8556 26.0167 19.7C26.4501 18.5445 26.6667 17.3111 26.6667 16C26.6667 13.0445 25.6279 10.5278 23.5501 8.45002C21.4723 6.37224 18.9556 5.33335 16.0001 5.33335C13.0445 5.33335 10.5279 6.37224 8.45008 8.45002C6.3723 10.5278 5.33341 13.0445 5.33341 16C5.33341 17.3111 5.55008 18.5445 5.98341 19.7C6.41675 20.8556 7.0223 21.8889 7.80008 22.8ZM16.0001 17.3334C14.689 17.3334 13.5834 16.8834 12.6834 15.9834C11.7834 15.0834 11.3334 13.9778 11.3334 12.6667C11.3334 11.3556 11.7834 10.25 12.6834 9.35002C13.5834 8.45002 14.689 8.00002 16.0001 8.00002C17.3112 8.00002 18.4167 8.45002 19.3167 9.35002C20.2167 10.25 20.6667 11.3556 20.6667 12.6667C20.6667 13.9778 20.2167 15.0834 19.3167 15.9834C18.4167 16.8834 17.3112 17.3334 16.0001 17.3334ZM16.0001 29.3334C14.1556 29.3334 12.4223 28.9834 10.8001 28.2834C9.17786 27.5834 7.76675 26.6334 6.56675 25.4334C5.36675 24.2334 4.41675 22.8222 3.71675 21.2C3.01675 19.5778 2.66675 17.8445 2.66675 16C2.66675 14.1556 3.01675 12.4222 3.71675 10.8C4.41675 9.1778 5.36675 7.76669 6.56675 6.56669C7.76675 5.36669 9.17786 4.41669 10.8001 3.71669C12.4223 3.01669 14.1556 2.66669 16.0001 2.66669C17.8445 2.66669 19.5779 3.01669 21.2001 3.71669C22.8223 4.41669 24.2334 5.36669 25.4334 6.56669C26.6334 7.76669 27.5834 9.1778 28.2834 10.8C28.9834 12.4222 29.3334 14.1556 29.3334 16C29.3334 17.8445 28.9834 19.5778 28.2834 21.2C27.5834 22.8222 26.6334 24.2334 25.4334 25.4334C24.2334 26.6334 22.8223 27.5834 21.2001 28.2834C19.5779 28.9834 17.8445 29.3334 16.0001 29.3334Z" fill="#ABABAB"/>
</svg>
