<svg width="32" height="32" viewBox="0 0 32 32" fill="none" xmlns="http://www.w3.org/2000/svg">
<path d="M18.6667 20C19.0445 20 19.3723 19.8611 19.6501 19.5834C19.9279 19.3056 20.0667 18.9778 20.0667 18.6C20.0667 18.2222 19.9279 17.8945 19.6501 17.6167C19.3723 17.3389 19.0445 17.2 18.6667 17.2C18.289 17.2 17.9612 17.3389 17.6834 17.6167C17.4056 17.8945 17.2667 18.2222 17.2667 18.6C17.2667 18.9778 17.4056 19.3056 17.6834 19.5834C17.9612 19.8611 18.289 20 18.6667 20ZM18.6667 15.7334C18.9112 15.7334 19.139 15.6445 19.3501 15.4667C19.5612 15.2889 19.689 15.0556 19.7334 14.7667C19.7779 14.5 19.8723 14.2556 20.0167 14.0334C20.1612 13.8111 20.4223 13.5111 20.8001 13.1334C21.4667 12.4667 21.9112 11.9278 22.1334 11.5167C22.3556 11.1056 22.4667 10.6222 22.4667 10.0667C22.4667 9.06669 22.1167 8.25002 21.4167 7.61669C20.7167 6.98335 19.8001 6.66669 18.6667 6.66669C17.9334 6.66669 17.2667 6.83335 16.6667 7.16669C16.0667 7.50002 15.589 7.9778 15.2334 8.60002C15.1001 8.82224 15.089 9.05558 15.2001 9.30002C15.3112 9.54446 15.5001 9.72224 15.7667 9.83335C16.0112 9.94446 16.2501 9.95558 16.4834 9.86669C16.7167 9.7778 16.9112 9.62224 17.0667 9.40002C17.2667 9.11113 17.5001 8.89446 17.7667 8.75002C18.0334 8.60558 18.3334 8.53335 18.6667 8.53335C19.2001 8.53335 19.6334 8.68335 19.9667 8.98335C20.3001 9.28335 20.4667 9.68891 20.4667 10.2C20.4667 10.5111 20.3779 10.8056 20.2001 11.0834C20.0223 11.3611 19.7112 11.7111 19.2667 12.1334C18.6223 12.6889 18.2112 13.1167 18.0334 13.4167C17.8556 13.7167 17.7445 14.1556 17.7001 14.7334C17.6779 15 17.7612 15.2334 17.9501 15.4334C18.139 15.6334 18.3779 15.7334 18.6667 15.7334ZM10.6667 24C9.93341 24 9.30564 23.7389 8.78341 23.2167C8.26119 22.6945 8.00008 22.0667 8.00008 21.3334V5.33335C8.00008 4.60002 8.26119 3.97224 8.78341 3.45002C9.30564 2.9278 9.93341 2.66669 10.6667 2.66669H26.6667C27.4001 2.66669 28.0279 2.9278 28.5501 3.45002C29.0723 3.97224 29.3334 4.60002 29.3334 5.33335V21.3334C29.3334 22.0667 29.0723 22.6945 28.5501 23.2167C28.0279 23.7389 27.4001 24 26.6667 24H10.6667ZM5.33341 29.3334C4.60008 29.3334 3.9723 29.0722 3.45008 28.55C2.92786 28.0278 2.66675 27.4 2.66675 26.6667V9.33335C2.66675 8.95558 2.79453 8.63891 3.05008 8.38335C3.30564 8.1278 3.6223 8.00002 4.00008 8.00002C4.37786 8.00002 4.69453 8.1278 4.95008 8.38335C5.20564 8.63891 5.33341 8.95558 5.33341 9.33335V26.6667H22.6667C23.0445 26.6667 23.3612 26.7945 23.6167 27.05C23.8723 27.3056 24.0001 27.6222 24.0001 28C24.0001 28.3778 23.8723 28.6945 23.6167 28.95C23.3612 29.2056 23.0445 29.3334 22.6667 29.3334H5.33341Z" fill="#ABABAB"/>
</svg>
