<svg width="32" height="32" viewBox="0 0 32 32" fill="none" xmlns="http://www.w3.org/2000/svg">
<path d="M12.0001 24H19.3334C19.7112 24 20.0612 23.9056 20.3834 23.7167C20.7056 23.5278 20.9334 23.2667 21.0667 22.9334L23.8667 16.4C23.9112 16.2889 23.9445 16.1778 23.9667 16.0667C23.989 15.9556 24.0001 15.8445 24.0001 15.7334V14.6667C24.0001 14.2889 23.8723 13.9722 23.6167 13.7167C23.3612 13.4611 23.0445 13.3334 22.6667 13.3334H16.5334L17.3334 8.80002C17.3779 8.5778 17.3667 8.36669 17.3001 8.16669C17.2334 7.96669 17.1223 7.78891 16.9667 7.63335L16.0001 6.66669L9.86675 13.3334C9.68897 13.5111 9.55564 13.7111 9.46675 13.9334C9.37786 14.1556 9.33341 14.4 9.33341 14.6667V21.3334C9.33341 22.0667 9.59453 22.6945 10.1167 23.2167C10.639 23.7389 11.2667 24 12.0001 24ZM16.0001 29.3334C14.1556 29.3334 12.4223 28.9834 10.8001 28.2834C9.17786 27.5834 7.76675 26.6334 6.56675 25.4334C5.36675 24.2334 4.41675 22.8222 3.71675 21.2C3.01675 19.5778 2.66675 17.8445 2.66675 16C2.66675 14.1556 3.01675 12.4222 3.71675 10.8C4.41675 9.1778 5.36675 7.76669 6.56675 6.56669C7.76675 5.36669 9.17786 4.41669 10.8001 3.71669C12.4223 3.01669 14.1556 2.66669 16.0001 2.66669C17.8445 2.66669 19.5779 3.01669 21.2001 3.71669C22.8223 4.41669 24.2334 5.36669 25.4334 6.56669C26.6334 7.76669 27.5834 9.1778 28.2834 10.8C28.9834 12.4222 29.3334 14.1556 29.3334 16C29.3334 17.8445 28.9834 19.5778 28.2834 21.2C27.5834 22.8222 26.6334 24.2334 25.4334 25.4334C24.2334 26.6334 22.8223 27.5834 21.2001 28.2834C19.5779 28.9834 17.8445 29.3334 16.0001 29.3334Z" fill="#ABABAB"/>
</svg>
